# xmcd
#
# Track frame offsets: 
#        150
#        15786
#        33217
#        64997
#        88125
#        108158
#        127685
#        147491
#        165152
#        179201
#        210409
#        233499
#        253856
#        266561
#        280286
#        295526
#        317526
#
# Disc length: 4462 seconds
#
# Revision: 0
# Processed by: cddbd v1.5.2PL0 Copyright (c) Steve Scherf et al.
# Submitted via: ExactAudioCopyFreeDBPlugin 1.0
#
DISCID=e2116c11
DTITLE=Various Artist - Trail Mix Final
DYEAR=2011
DGENRE=Bluegrass
TTITLE0=G.Love - 01 Fixin' To Die
TTITLE1=Easy Star All Stars - 02 First Light
TTITLE2=Drive-By Truckers - 3 Used To Be A Cop 
TTITLE3=Dawes - 04 When My Time Comes
TTITLE4=James Justin and Co - 05 Dark Country
TTITLE5=Ki:Theory - 06 No One Gets Hurt
TTITLE6=Rodrigo y Gabriela - 07 Buster Voodoo
TTITLE7=Infamous Stringdusters - 08 You Can't Stop The Changes
TTITLE8=Danny Barnes - 09 Caveman
TTITLE9=North Mississippi Allstars - 10 Hear The Hills
TTITLE10=John Butler Trio - 11 Fool For You
TTITLE11=Sons of Bill - 12 Santa Ana Winds
TTITLE12=Chris Thile and Michael Daves - 13 My Little Girl In Tennessee
TTITLE13=David Mayfield Parade - 14 I Just Might Pray
TTITLE14=Junior League Band - 15 Don't Be a Stranger Tonight
TTITLE15=Pretty Lights - 16 Gold Coast Hustle
TTITLE16=Jason Isbell and the 400 Unit - 17 Alabama Pines
EXTD=
EXTT0=
EXTT1=
EXTT2=
EXTT3=
EXTT4=
EXTT5=
EXTT6=
EXTT7=
EXTT8=
EXTT9=
EXTT10=
EXTT11=
EXTT12=
EXTT13=
EXTT14=
EXTT15=
EXTT16=
PLAYORDER=
